<?xml version="1.0" encoding="UTF-8" standalone="no"?>
<!-- Created with Inkscape (http://www.inkscape.org/) -->
<svg xmlns:dc="http://purl.org/dc/elements/1.1/" xmlns:cc="http://creativecommons.org/ns#" xmlns:rdf="http://www.w3.org/1999/02/22-rdf-syntax-ns#" xmlns:svg="http://www.w3.org/2000/svg" xmlns="http://www.w3.org/2000/svg" xmlns:sodipodi="http://sodipodi.sourceforge.net/DTD/sodipodi-0.dtd" xmlns:inkscape="http://www.inkscape.org/namespaces/inkscape" version="1.0" width="608" height="608" id="svg6806" sodipodi:version="0.32" inkscape:version="0.92.3 (2405546, 2018-03-11)" sodipodi:docname="Emblem_of_the_Spanish_Military_Medicine.svg" inkscape:output_extension="org.inkscape.output.svg.inkscape">
  <metadata id="metadata68">
    <rdf:RDF>
      <cc:Work rdf:about="">
        <dc:format>image/svg+xml</dc:format>
        <dc:type rdf:resource="http://purl.org/dc/dcmitype/StillImage"/>
        <dc:title/>
      </cc:Work>
    </rdf:RDF>
  </metadata>
  <sodipodi:namedview inkscape:window-height="706" inkscape:window-width="1366" inkscape:pageshadow="2" inkscape:pageopacity="0.0" guidetolerance="10.0" gridtolerance="10.0" objecttolerance="10.0" borderopacity="1.0" bordercolor="#666666" pagecolor="#ffffff" id="base" showgrid="false" inkscape:zoom="0.84782608" inkscape:cx="304.13692" inkscape:cy="302.33734" inkscape:window-x="-8" inkscape:window-y="-8" inkscape:current-layer="svg6806" inkscape:window-maximized="1" showguides="false" inkscape:guide-bbox="true" fit-margin-top="0" fit-margin-left="0" fit-margin-right="0" fit-margin-bottom="0"/>
  <defs id="defs6808"/>
  <g id="g3812" transform="matrix(3.0707423,0,0,3.0707423,1378.9567,-449.84189)">
    <path style="opacity:1;vector-effect:none;fill:#fee476;fill-opacity:1;stroke:none;stroke-width:0.31209397;stroke-linecap:butt;stroke-linejoin:miter;stroke-miterlimit:4;stroke-dasharray:none;stroke-dashoffset:0;stroke-opacity:1" inkscape:connector-curvature="0" d="m -395,151.10156 29.95117,79.8711 c -27.1164,-11.57553 -52.70362,-18.55882 -79.90234,-29.95899 12.04473,20.06517 25,45 25,45 0,0 -13.15529,26.5118 -25,45 l 79.87109,-29.95117 c -11.57552,27.1164 -18.55881,52.70362 -29.95898,79.90234 20.06517,-12.04473 45,-25 45,-25 0,0 26.5118,13.15529 45,25 l -29.95117,-79.87109 c 27.1164,11.57553 52.70361,18.55881 79.90234,29.95898 -12.04473,-20.06517 -25,-45 -25,-45 0,0 13.15529,-26.5118 25,-45 l -79.87109,29.95118 c 11.57552,-27.1164 18.55881,-52.70362 29.95898,-79.90235 -20.06517,12.04473 -45,25 -45,25 0,0 -26.5118,-13.15529 -45,-25 z" id="path6822"/>
    <path id="path3804" d="m -395,151.10156 29.95117,79.8711 c -27.1164,-11.57553 -52.70362,-18.55882 -79.90234,-29.95899 12.04473,20.06517 25,45 25,45 0,0 -13.15529,26.5118 -25,45 l 79.87109,-29.95117 c -11.57552,27.1164 -18.55881,52.70362 -29.95898,79.90234 20.06517,-12.04473 45,-25 45,-25 0,0 26.5118,13.15529 45,25 l -29.95117,-79.87109 c 27.1164,11.57553 52.70361,18.55881 79.90234,29.95898 -12.04473,-20.06517 -25,-45 -25,-45 0,0 13.15529,-26.5118 25,-45 l -79.87109,29.95118 c 11.57552,-27.1164 18.55881,-52.70362 29.95898,-79.90235 -20.06517,12.04473 -45,25 -45,25 0,0 -26.5118,-13.15529 -45,-25 z" inkscape:connector-curvature="0" style="opacity:1;vector-effect:none;fill:none;fill-opacity:1;stroke:#ac8800;stroke-width:1.97986782;stroke-linecap:butt;stroke-linejoin:miter;stroke-miterlimit:4;stroke-dasharray:none;stroke-dashoffset:0;stroke-opacity:1"/>
    <g id="g3810" style="fill-rule:evenodd">
      <path id="path3806" d="m -386.55859,161.10156 c 12.38422,25.12728 31.41759,79.59742 31.52343,79.90039 l -79.98828,-31.4375 20,36 -20,37 c 25.12604,-12.38361 79.59014,-31.41573 79.89844,-31.52343 l -31.43359,79.98632 36,-20 37,20 c -12.38423,-25.12727 -31.41955,-79.59742 -31.52539,-79.90039 l 79.98828,31.4375 -20,-36 20,-37 c -25.12606,12.38362 -79.5902,31.41575 -79.89844,31.52344 l 31.43555,-79.98633 -36,20 z m 36.5,84.94141 0.0215,0.0215 -0.0215,0.0215 -0.0234,-0.0215 z" inkscape:connector-curvature="0" style="opacity:1;vector-effect:none;fill:#ffeeaa;fill-opacity:1;stroke:none;stroke-width:0.31209397;stroke-linecap:butt;stroke-linejoin:miter;stroke-miterlimit:4;stroke-dasharray:none;stroke-dashoffset:0;stroke-opacity:1"/>
      <path id="path3808" d="m -380,168.10156 27,68 3,10 3,-10 27,-68 -30,18 z m -48.08398,48.08399 18,30 -18,30 68,-27 10,-3 -10,-3 z m 156.16796,0 -68,27 -10,3 10,3 68,27 -18,-30 z M -350,246.26953 l -3,10 -27,68 30,-18 30,18 -27,-68 z" inkscape:connector-curvature="0" style="opacity:1;vector-effect:none;fill:#fff6d5;fill-opacity:1;stroke:none;stroke-width:0.31209397;stroke-linecap:butt;stroke-linejoin:miter;stroke-miterlimit:4;stroke-dasharray:none;stroke-dashoffset:0;stroke-opacity:1"/>
    </g>
  </g>
<style xmlns="" id="autoconsent-prehide"/></svg>